<?xml version="1.0" encoding="UTF-8" standalone="no"?>
<!-- Created with Inkscape (http://www.inkscape.org/) -->

<svg
   xmlns:osb="http://www.openswatchbook.org/uri/2009/osb"
   xmlns:dc="http://purl.org/dc/elements/1.1/"
   xmlns:cc="http://creativecommons.org/ns#"
   xmlns:rdf="http://www.w3.org/1999/02/22-rdf-syntax-ns#"
   xmlns:svg="http://www.w3.org/2000/svg"
   xmlns="http://www.w3.org/2000/svg"
   xmlns:xlink="http://www.w3.org/1999/xlink"
   xmlns:sodipodi="http://sodipodi.sourceforge.net/DTD/sodipodi-0.dtd"
   xmlns:inkscape="http://www.inkscape.org/namespaces/inkscape"
   width="297mm"
   height="210mm"
   viewBox="0 0 1052.3622 744.09448"
   id="svg2"
   version="1.1"
   inkscape:version="0.91 r13725"
   sodipodi:docname="dessin.svg"
   inkscape:export-filename="/home/remy/these/talks/sophia_dec2015/dessin.png"
   inkscape:export-xdpi="90"
   inkscape:export-ydpi="90">
  <defs
     id="defs4">
    <linearGradient
       id="linearGradient4224"
       osb:paint="solid">
      <stop
         style="stop-color:#ffffff;stop-opacity:1;"
         offset="0"
         id="stop4226" />
    </linearGradient>
    <linearGradient
       inkscape:collect="always"
       xlink:href="#linearGradient4224"
       id="linearGradient4230"
       x1="113.31576"
       y1="973.84271"
       x2="216.76937"
       y2="973.84271"
       gradientUnits="userSpaceOnUse" />
    <linearGradient
       inkscape:collect="always"
       xlink:href="#linearGradient4224"
       id="linearGradient4232"
       x1="937.60022"
       y1="385.93393"
       x2="1041.0538"
       y2="385.93393"
       gradientUnits="userSpaceOnUse" />
  </defs>
  <sodipodi:namedview
     id="base"
     pagecolor="#000000"
     bordercolor="#000000"
     borderopacity="0"
     inkscape:pageopacity="0"
     inkscape:pageshadow="2"
     inkscape:zoom="0.7"
     inkscape:cx="495.13495"
     inkscape:cy="391.05273"
     inkscape:document-units="px"
     inkscape:current-layer="layer1"
     showgrid="false"
     inkscape:window-width="2556"
     inkscape:window-height="1436"
     inkscape:window-x="2560"
     inkscape:window-y="0"
     inkscape:window-maximized="0" />
  <metadata
     id="metadata7">
    <rdf:RDF>
      <cc:Work
         rdf:about="">
        <dc:format>image/svg+xml</dc:format>
        <dc:type
           rdf:resource="http://purl.org/dc/dcmitype/StillImage" />
        <dc:title />
      </cc:Work>
    </rdf:RDF>
  </metadata>
  <g
     inkscape:label="Calque 1"
     inkscape:groupmode="layer"
     id="layer1"
     transform="translate(0,-308.26772)">
    <path
       style="fill:#000000;stroke:#ffffff;stroke-opacity:0.60851061;stroke-width:3.1;stroke-miterlimit:4;stroke-dasharray:none"
       d="M -80.769531 -85.451172 L -86.275391 -78.730469 L 117.4082 88.144531 C 114.11497 91.280451 109.77025 94.547846 102.68164 100.19922 L 135.9668 96.892578 L 132.66016 63.605469 C 128.29197 72.365839 125.6255 77.599686 123.00977 81.503906 L -80.769531 -85.451172 z M 1106.2168 -78.097656 L 892.31055 75.455078 C 890.13383 71.462428 888.10266 66.419125 884.47852 58.109375 L 879.05664 91.117188 L 912.06445 96.539062 C 904.73315 90.052363 900.36957 86.121064 897.27539 82.583984 L 922.16406 64.716797 C 922.13919 64.577531 922.12401 64.454084 922.09766 64.3125 C 925.50627 61.374473 924.65843 61.8098 927.43555 60.679688 C 927.74661 60.518529 928.0841 60.375886 928.38281 60.253906 L 930.0332 59.068359 L 930.0332 59.386719 C 930.25663 59.262745 930.47371 59.153859 930.6875 59.039062 C 925.79638 58.42904 928.31491 57.891136 932.11328 57.576172 L 1111.2832 -71.039062 L 1106.2168 -78.097656 z M 74.589844 4.3144531 L 80.833984 13.660156 L 73.675781 24.363281 L 76.603516 24.363281 L 82.283203 15.835938 L 87.923828 24.363281 L 90.837891 24.363281 L 83.962891 13.943359 L 90.408203 4.3144531 L 87.494141 4.3144531 L 82.484375 11.767578 L 77.503906 4.3144531 L 74.589844 4.3144531 z M 94.408203 4.3144531 L 94.408203 24.363281 L 97.121094 24.363281 L 97.121094 14.816406 L 106.97656 14.816406 L 106.97656 24.363281 L 109.68945 24.363281 L 109.68945 4.3144531 L 106.97656 4.3144531 L 106.97656 12.533203 L 97.121094 12.533203 L 97.121094 4.3144531 L 94.408203 4.3144531 z M 115.08789 4.3144531 L 115.08789 24.363281 L 117.80078 24.363281 L 117.80078 15.890625 L 120.75391 15.890625 C 121.82812 15.890625 122.67529 16.108236 123.29297 16.546875 C 123.9196 16.985514 124.56413 17.87793 125.22656 19.220703 L 127.79102 24.363281 L 130.70312 24.363281 L 127.95117 18.884766 C 127.39616 17.756836 126.84212 16.869141 126.28711 16.224609 C 125.74105 15.580078 125.17562 15.159831 124.59375 14.962891 C 125.71273 14.640625 126.56462 14.062988 127.14648 13.230469 C 127.7373 12.397949 128.03125 11.352051 128.03125 10.089844 C 128.03125 8.1562494 127.46777 6.7097982 126.33984 5.7519531 C 125.21191 4.7941081 123.5026 4.3144531 121.21094 4.3144531 L 115.08789 4.3144531 z M 117.80078 6.5449219 L 121.21094 6.5449219 C 122.5179 6.5449219 123.50163 6.8435872 124.16406 7.4433594 C 124.83545 8.0341797 125.17186 8.9171543 125.17188 10.089844 C 125.17188 11.262533 124.83545 12.152995 124.16406 12.761719 C 123.50163 13.361491 122.5179 13.660156 121.21094 13.660156 L 117.80078 13.660156 L 117.80078 6.5449219 z M 120.93359 279.60742 L 120.93359 282.73633 L 123.4043 282.73633 L 123.4043 279.60742 L 120.93359 279.60742 z M 27.611328 280.08984 C 25.418132 280.08984 23.694661 280.60059 22.441406 281.62109 C 21.197103 282.6416 20.576172 284.03809 20.576172 285.81055 C 20.576172 287.34131 21.027507 288.53711 21.931641 289.39648 C 22.835775 290.25586 24.299154 290.88623 26.322266 291.28906 L 27.974609 291.61133 C 29.35319 291.88883 30.341634 292.30632 30.941406 292.86133 C 31.55013 293.41634 31.855469 294.18522 31.855469 295.16992 C 31.855469 296.29785 31.433268 297.16667 30.591797 297.77539 C 29.750326 298.38411 28.556478 298.6875 27.007812 298.6875 C 25.987305 298.6875 24.948893 298.53206 23.892578 298.21875 C 22.836263 297.90544 21.757324 297.43994 20.65625 296.82227 L 20.65625 299.61523 C 21.802083 300.03597 22.907389 300.35352 23.972656 300.56836 C 25.046875 300.7832 26.058919 300.89062 27.007812 300.89062 C 29.523276 300.89062 31.428549 300.38932 32.726562 299.38672 C 34.03353 298.38411 34.6875 296.9113 34.6875 294.96875 C 34.6875 293.33952 34.205078 292.04102 33.238281 291.07422 C 32.280436 290.09847 30.788737 289.41813 28.765625 289.0332 L 27.128906 288.69727 C 25.642904 288.41976 24.630859 288.05696 24.09375 287.60938 C 23.565592 287.15283 23.300781 286.48193 23.300781 285.5957 C 23.300781 284.53939 23.699382 283.72526 24.496094 283.15234 C 25.301758 282.57943 26.442871 282.29297 27.919922 282.29297 C 28.770345 282.29297 29.65332 282.41455 30.566406 282.65625 C 31.479492 282.89795 32.449056 283.26351 33.478516 283.75586 L 33.478516 281.11133 C 32.458008 280.77116 31.460124 280.51579 30.484375 280.3457 C 29.508626 280.17562 28.55127 280.08984 27.611328 280.08984 z M 38.769531 281.19141 L 38.769531 285.46094 L 36.957031 285.46094 L 36.957031 287.38281 L 38.769531 287.38281 L 38.769531 295.54688 C 38.769531 297.42676 39.132324 298.72331 39.857422 299.43945 C 40.58252 300.14665 41.897948 300.5 43.804688 300.5 L 46.34375 300.5 L 46.34375 298.43359 L 43.804688 298.43359 C 42.775227 298.43359 42.090169 298.25928 41.75 297.91016 C 41.418783 297.56104 41.253906 296.77327 41.253906 295.54688 L 41.253906 287.38281 L 46.34375 287.38281 L 46.34375 285.46094 L 41.253906 285.46094 L 41.253906 281.19141 L 38.769531 281.19141 z M 57.058594 285.09961 C 55.868001 285.09961 54.855954 285.32389 54.023438 285.77148 C 53.190918 286.21012 52.515299 286.88574 51.996094 287.79883 L 51.996094 285.46094 L 49.511719 285.46094 L 49.511719 300.5 L 51.996094 300.5 L 51.996094 292.57812 C 51.996094 290.87728 52.368327 289.57601 53.111328 288.67188 C 53.863281 287.75878 54.9375 287.30078 56.333984 287.30078 C 56.727865 287.30078 57.085938 287.3413 57.408203 287.42188 C 57.739421 287.49349 58.042806 287.61035 58.320312 287.77148 L 58.306641 285.23438 C 58.05599 285.18962 57.828939 285.15658 57.623047 285.13867 C 57.417155 285.11182 57.228678 285.09961 57.058594 285.09961 z M 66.646484 285.09961 C 64.390625 285.09961 62.59554 285.8252 61.261719 287.27539 C 59.936849 288.71663 59.273438 290.66715 59.273438 293.12891 C 59.273438 295.51009 59.972656 297.39844 61.369141 298.79492 C 62.774577 300.19141 64.677083 300.89062 67.076172 300.89062 C 68.034017 300.89062 68.977214 300.79264 69.908203 300.5957 C 70.839193 300.39876 71.748535 300.1123 72.634766 299.73633 L 72.634766 297.39844 C 71.757487 297.86393 70.871745 298.21452 69.976562 298.44727 C 69.090333 298.68001 68.171549 298.79492 67.222656 298.79492 C 65.584473 298.79492 64.304851 298.35303 63.382812 297.4668 C 62.469727 296.57161 61.958984 295.27311 61.851562 293.57227 L 73.212891 293.57227 L 73.212891 292.36328 C 73.212891 290.12533 72.621094 288.35856 71.439453 287.06055 C 70.266764 285.75358 68.669596 285.09961 66.646484 285.09961 z M 82.544922 285.09961 C 81.739258 285.09961 80.91097 285.18815 80.060547 285.36719 C 79.210124 285.53727 78.331868 285.79736 77.427734 286.14648 L 77.427734 288.42969 C 78.179688 288.0179 78.962728 287.70785 79.777344 287.50195 C 80.59196 287.29606 81.429688 287.19336 82.289062 287.19336 C 83.640788 287.19336 84.688639 287.50814 85.431641 288.13477 C 86.183594 288.75244 86.558594 289.62874 86.558594 290.76562 L 86.558594 291.00781 L 83.095703 291.00781 C 80.848796 291.00781 79.156413 291.43748 78.019531 292.29688 C 76.891602 293.15625 76.328125 294.43115 76.328125 296.12305 C 76.328125 297.57324 76.77946 298.73324 77.683594 299.60156 C 78.59668 300.46094 79.823568 300.89062 81.363281 300.89062 C 82.580729 300.89062 83.609701 300.67578 84.451172 300.24609 C 85.292643 299.80745 85.994629 299.13184 86.558594 298.21875 L 86.558594 300.5 L 89.029297 300.5 L 89.029297 291.91992 C 89.029297 289.62826 88.492188 287.91895 87.417969 286.79102 C 86.34375 285.66309 84.720215 285.09961 82.544922 285.09961 z M 101.35742 285.09961 C 100.27425 285.09961 99.338542 285.31917 98.550781 285.75781 C 97.763021 286.19645 97.087399 286.87679 96.523438 287.79883 L 96.523438 285.46094 L 94.039062 285.46094 L 94.039062 300.5 L 96.523438 300.5 L 96.523438 292.00195 C 96.523437 290.54281 96.893717 289.38753 97.636719 288.53711 C 98.37972 287.67773 99.382327 287.24805 100.64453 287.24805 C 101.7098 287.24805 102.49756 287.59668 103.00781 288.29492 C 103.51807 288.98421 103.77344 290.05371 103.77344 291.50391 L 103.77344 300.5 L 106.25781 300.5 L 106.25781 292.00195 C 106.25781 290.53385 106.63005 289.37386 107.37305 288.52344 C 108.11605 287.67301 109.12614 287.24805 110.40625 287.24805 C 111.45361 287.24805 112.23389 287.59668 112.74414 288.29492 C 113.25439 288.99316 113.50781 290.06266 113.50781 291.50391 L 113.50781 300.5 L 115.99219 300.5 L 115.99219 291.42383 C 115.99219 289.40072 115.56722 287.84212 114.7168 286.75 C 113.86637 285.64893 112.65837 285.09961 111.0918 285.09961 C 109.92806 285.09961 108.91602 285.36248 108.05664 285.89062 C 107.19727 286.41879 106.45947 287.23958 105.8418 288.34961 C 105.47477 287.29329 104.90658 286.48665 104.13672 285.93164 C 103.37581 285.37663 102.44954 285.09961 101.35742 285.09961 z M 135.8125 285.09961 C 134.76514 285.09961 133.83887 285.32389 133.0332 285.77148 C 132.23649 286.21908 131.54199 286.89469 130.95117 287.79883 L 130.95117 285.46094 L 128.4668 285.46094 L 128.4668 300.5 L 130.95117 300.5 L 130.95117 292.00195 C 130.95117 290.53385 131.33561 289.37386 132.10547 288.52344 C 132.87533 287.67301 133.9279 287.24805 135.26172 287.24805 C 136.37174 287.24805 137.20475 287.6014 137.75977 288.30859 C 138.31478 289.01579 138.5918 290.08057 138.5918 291.50391 L 138.5918 300.5 L 141.0625 300.5 L 141.0625 291.42383 C 141.0625 289.34701 140.61865 287.7762 139.73242 286.71094 C 138.84619 285.63672 137.5402 285.09961 135.8125 285.09961 z M 151.09375 285.09961 C 149.24967 285.09961 147.7627 285.8016 146.63477 287.20703 C 145.50684 288.61247 144.94336 290.47917 144.94336 292.80664 C 144.94336 295.12516 145.50684 296.98714 146.63477 298.39258 C 147.7627 299.79801 149.24967 300.5 151.09375 300.5 C 152.20378 300.5 153.15641 300.28239 153.95312 299.84375 C 154.74984 299.40511 155.40381 298.7417 155.91406 297.85547 L 155.91406 299.07812 C 155.91406 300.78792 155.51074 302.06283 154.70508 302.9043 C 153.89941 303.75472 152.68669 304.17969 151.06641 304.17969 C 150.33236 304.17969 149.61149 304.08643 148.9043 303.89844 C 148.1971 303.71045 147.48096 303.41927 146.75586 303.02539 L 146.75586 305.42969 C 147.48096 305.69824 148.22819 305.89421 148.99805 306.01953 C 149.7679 306.15381 150.58675 306.2207 151.45508 306.2207 C 153.80046 306.2207 155.54281 305.59505 156.67969 304.3418 C 157.81657 303.09749 158.38477 301.19499 158.38477 298.63477 L 158.38477 285.46094 L 155.91406 285.46094 L 155.91406 287.74414 C 155.40381 286.85791 154.74984 286.19645 153.95312 285.75781 C 153.15641 285.31917 152.20378 285.09961 151.09375 285.09961 z M 120.93359 285.46094 L 120.93359 300.5 L 123.4043 300.5 L 123.4043 285.46094 L 120.93359 285.46094 z M 151.69727 287.16797 C 153.03109 287.16797 154.06478 287.65983 154.79883 288.64453 C 155.54183 289.62923 155.91406 291.01628 155.91406 292.80664 C 155.91406 294.58805 155.54183 295.97038 154.79883 296.95508 C 154.06478 297.93978 153.03109 298.43359 151.69727 298.43359 C 150.3724 298.43359 149.3387 297.93978 148.5957 296.95508 C 147.86165 295.97038 147.49414 294.58805 147.49414 292.80664 C 147.49414 291.01628 147.86165 289.62923 148.5957 288.64453 C 149.3387 287.65983 150.3724 287.16797 151.69727 287.16797 z M 66.671875 287.19336 C 67.889323 287.19336 68.86556 287.59668 69.599609 288.40234 C 70.342611 289.20801 70.724283 290.28695 70.742188 291.63867 L 61.933594 291.65234 C 62.058919 290.23796 62.531901 289.14014 63.355469 288.36133 C 64.187988 287.58252 65.293294 287.19336 66.671875 287.19336 z M 84.101562 292.94141 L 86.558594 292.94141 L 86.558594 293.49219 C 86.558594 295.10352 86.143066 296.3973 85.310547 297.37305 C 84.486979 298.33984 83.391113 298.82227 82.021484 298.82227 C 81.027832 298.82227 80.240072 298.56689 79.658203 298.05664 C 79.085286 297.53743 78.798828 296.84017 78.798828 295.96289 C 78.798828 294.86182 79.183268 294.08154 79.953125 293.625 C 80.722982 293.16846 82.105306 292.94141 84.101562 292.94141 z M 369.91211 303.44727 C 372.99177 316.97486 374.76714 325.10859 375.40625 331.73828 L 2.0429688 331.73828 L 2.0429688 344.05078 L 375.23047 344.05078 C 374.43673 350.44671 372.60737 357.9315 369.91211 370.49414 L 403.43359 336.97266 L 369.91211 303.44727 z M 865.02148 559.83984 L 831.73633 563.14648 L 835.04102 596.43359 C 839.40921 587.67322 842.07763 582.44133 844.69336 578.53711 L 1048.4727 745.49219 L 1053.9785 738.77148 L 850.29492 571.89453 C 853.58815 568.75861 857.93287 565.49121 865.02148 559.83984 z M 910.49414 569.02539 L 916.73828 578.37109 L 909.58203 589.07227 L 912.50977 589.07227 L 918.18945 580.54492 L 923.82812 589.07227 L 926.74219 589.07227 L 919.86719 578.65234 L 926.3125 569.02539 L 923.39844 569.02539 L 918.39062 576.47656 L 913.4082 569.02539 L 910.49414 569.02539 z M 930.31445 569.02539 L 930.31445 589.07227 L 933.02734 589.07227 L 933.02734 579.52539 L 942.88281 579.52539 L 942.88281 589.07227 L 945.5957 589.07227 L 945.5957 569.02539 L 942.88281 569.02539 L 942.88281 577.24219 L 933.02734 577.24219 L 933.02734 569.02539 L 930.31445 569.02539 z M 950.99219 569.02539 L 950.99219 589.07227 L 953.70508 589.07227 L 953.70508 580.59961 L 956.66016 580.59961 C 957.73438 580.59961 958.57959 580.81917 959.19727 581.25781 C 959.82389 581.69645 960.46842 582.58691 961.13086 583.92969 L 963.69531 589.07227 L 966.60938 589.07227 L 963.85742 583.59375 C 963.30241 582.46582 962.74642 581.58008 962.19141 580.93555 C 961.64535 580.29102 961.08187 579.87077 960.5 579.67383 C 961.61898 579.35156 962.46891 578.77393 963.05078 577.94141 C 963.6416 577.10889 963.9375 576.06104 963.9375 574.79883 C 963.9375 572.86523 963.37402 571.41878 962.24609 570.46094 C 961.11816 569.50309 959.4069 569.02539 957.11523 569.02539 L 950.99219 569.02539 z M 953.70508 571.25391 L 957.11523 571.25391 C 958.4222 571.25391 959.40788 571.55452 960.07031 572.1543 C 960.7417 572.74512 961.07617 573.62614 961.07617 574.79883 C 961.07617 575.97152 960.7417 576.86198 960.07031 577.4707 C 959.40788 578.07048 958.4222 578.37109 957.11523 578.37109 L 953.70508 578.37109 L 953.70508 571.25391 z M 162.37695 572.97266 L 129.08984 576.2793 C 137.85021 580.64749 143.08211 583.31591 146.98633 585.93164 L -19.96875 789.70898 L -13.248047 795.21484 L 153.62891 591.5332 C 156.76483 594.82643 160.03027 599.17116 165.68164 606.25977 L 162.37695 572.97266 z "
       transform="translate(0,308.26772)"
       id="rect3336" />
    <text
       xml:space="preserve"
       style="font-style:normal;font-weight:normal;font-size:40px;line-height:125%;font-family:Sans;letter-spacing:0px;word-spacing:0px;fill:#000000;fill-opacity:1;stroke:none;stroke-width:1px;stroke-linecap:butt;stroke-linejoin:miter;stroke-opacity:1"
       x="284.28571"
       y="-104.78065"
       id="text3440"
       sodipodi:linespacing="125%"><tspan
         sodipodi:role="line"
         id="tspan3442"
         x="284.28571"
         y="-104.78065" /></text>
    <flowRoot
       xml:space="preserve"
       id="flowRoot3496"
       style="font-style:normal;font-weight:normal;font-size:40px;line-height:125%;font-family:Sans;letter-spacing:0px;word-spacing:0px;fill:#ffffff;fill-opacity:1;stroke:none;stroke-width:1px;stroke-linecap:butt;stroke-linejoin:miter;stroke-opacity:1"
       transform="translate(0,308.26772)"><flowRegion
         id="flowRegion3498"><rect
           id="rect3500"
           width="182.85715"
           height="44.285713"
           x="78.571426"
           y="279.80878"
           style="fill:#ffffff" /></flowRegion><flowPara
         id="flowPara3502">StreaStreaming</flowPara><flowPara
         id="flowPara3504" /></flowRoot>    <text
       xml:space="preserve"
       style="font-style:normal;font-weight:normal;font-size:40px;line-height:125%;font-family:Sans;letter-spacing:0px;word-spacing:0px;fill:#000000;fill-opacity:1;stroke:#ffffff;stroke-width:3.1;stroke-linecap:butt;stroke-linejoin:miter;stroke-opacity:0.60851061;stroke-miterlimit:4;stroke-dasharray:none;"
       x="935.40125"
       y="395.76303"
       id="text3455"
       sodipodi:linespacing="125%"><tspan
         sodipodi:role="line"
         id="tspan3457"
         x="935.40125"
         y="395.76303"
         style="-inkscape-font-specification:'Sans, Normal';font-family:Sans;font-weight:normal;font-style:normal;font-stretch:normal;font-variant:normal;font-size:27.5px;text-anchor:start;text-align:start;writing-mode:lr;line-height:125%;fill:#000000;stroke:#ffffff;stroke-opacity:0.60851061;stroke-width:3.1;stroke-miterlimit:4;stroke-dasharray:none;">Buttons</tspan></text>
    <text
       xml:space="preserve"
       style="font-style:normal;font-variant:normal;font-weight:normal;font-stretch:normal;font-size:27.5px;line-height:125%;font-family:Sans;-inkscape-font-specification:'Sans, Normal';text-align:start;letter-spacing:0px;word-spacing:0px;writing-mode:lr-tb;text-anchor:start;fill:#000000;fill-opacity:1;stroke:#ffffff;stroke-width:3.1;stroke-linecap:butt;stroke-linejoin:miter;stroke-opacity:0.60851061;stroke-miterlimit:4;stroke-dasharray:none;"
       x="111.11678"
       y="983.67181"
       id="text3459"
       sodipodi:linespacing="125%"><tspan
         sodipodi:role="line"
         id="tspan3461"
         x="111.11678"
         y="983.67181"
         style="stroke:#ffffff;stroke-opacity:0.60851061;stroke-width:3.1;stroke-miterlimit:4;stroke-dasharray:none;">Buttons</tspan></text>
    <rect
       style="fill:#000000;stroke:#ffffff;stroke-opacity:0.60851061;stroke-width:3.09999999;stroke-miterlimit:4;stroke-dasharray:none"
       id="rect3463"
       width="7.6785712"
       height="22.142857"
       x="834.53802"
       y="-547.05853"
       transform="matrix(0.58525176,0.81085164,-0.81085164,0.58525176,0,0)" />
  </g>
</svg>
