<?xml version="1.0" encoding="UTF-8" standalone="no"?>
<!DOCTYPE svg PUBLIC "-//W3C//DTD SVG 1.1//EN"
 "http://www.w3.org/Graphics/SVG/1.1/DTD/svg11.dtd">
<!-- Generated by graphviz version 2.38.0 (20140413.2041)
 -->
<!-- Title: tagged Pages: 1 -->
<svg width="376pt" height="260pt"
 viewBox="0.00 0.00 376.48 260.00" xmlns="http://www.w3.org/2000/svg" xmlns:xlink="http://www.w3.org/1999/xlink">
<g id="graph0" class="graph" transform="scale(1 1) rotate(0) translate(4 256)">
<title>tagged</title>
<polygon fill="white" stroke="none" points="-4,4 -4,-256 372.484,-256 372.484,4 -4,4"/>
<!-- N6 -->
<g id="node1" class="node"><title>N6</title>
<ellipse fill="none" stroke="black" cx="233.788" cy="-234" rx="33.2948" ry="18"/>
<text text-anchor="middle" x="233.788" y="-230.3" font-family="Times,serif" font-size="14.00">6 loop</text>
</g>
<!-- N5 -->
<g id="node2" class="node"><title>N5</title>
<ellipse fill="none" stroke="black" cx="233.788" cy="-162" rx="29.4969" ry="18"/>
<text text-anchor="middle" x="233.788" y="-158.3" font-family="Times,serif" font-size="14.00">5 seq</text>
</g>
<!-- N6&#45;&gt;N5 -->
<g id="edge1" class="edge"><title>N6&#45;&gt;N5</title>
<path fill="none" stroke="black" d="M233.788,-215.697C233.788,-207.983 233.788,-198.712 233.788,-190.112"/>
<polygon fill="black" stroke="black" points="237.288,-190.104 233.788,-180.104 230.288,-190.104 237.288,-190.104"/>
</g>
<!-- N3 -->
<g id="node3" class="node"><title>N3</title>
<ellipse fill="none" stroke="black" cx="137.788" cy="-90" rx="137.576" ry="18"/>
<text text-anchor="middle" x="137.788" y="-86.3" font-family="Times,serif" font-size="14.00">3 present(window##onmousemove)</text>
</g>
<!-- N5&#45;&gt;N3 -->
<g id="edge2" class="edge"><title>N5&#45;&gt;N3</title>
<path fill="none" stroke="black" d="M215.731,-147.834C202.624,-138.277 184.558,-125.103 169.119,-113.846"/>
<polygon fill="black" stroke="black" points="171.003,-110.888 160.86,-107.824 166.878,-116.544 171.003,-110.888"/>
</g>
<!-- N4 -->
<g id="node4" class="node"><title>N4</title>
<ellipse fill="none" stroke="black" cx="330.788" cy="-90" rx="37.8943" ry="18"/>
<text text-anchor="middle" x="330.788" y="-86.3" font-family="Times,serif" font-size="14.00">4 pause</text>
</g>
<!-- N5&#45;&gt;N4 -->
<g id="edge3" class="edge"><title>N5&#45;&gt;N4</title>
<path fill="none" stroke="black" d="M252.033,-147.834C266.333,-137.514 286.477,-122.977 302.812,-111.189"/>
<polygon fill="black" stroke="black" points="304.895,-114.002 310.955,-105.312 300.798,-108.326 304.895,-114.002"/>
</g>
<!-- N2 -->
<g id="node5" class="node"><title>N2</title>
<ellipse fill="none" stroke="black" cx="88.7878" cy="-18" rx="35.9954" ry="18"/>
<text text-anchor="middle" x="88.7878" y="-14.3" font-family="Times,serif" font-size="14.00">2 atom</text>
</g>
<!-- N3&#45;&gt;N2 -->
<g id="edge4" class="edge"><title>N3&#45;&gt;N2</title>
<path fill="none" stroke="black" d="M125.926,-72.055C119.941,-63.5048 112.57,-52.975 105.977,-43.5561"/>
<polygon fill="black" stroke="black" points="108.805,-41.4922 100.203,-35.307 103.07,-45.5065 108.805,-41.4922"/>
</g>
<!-- N1 -->
<g id="node6" class="node"><title>N1</title>
<ellipse fill="none" stroke="black" cx="186.788" cy="-18" rx="44.393" ry="18"/>
<text text-anchor="middle" x="186.788" y="-14.3" font-family="Times,serif" font-size="14.00">1 nothing</text>
</g>
<!-- N3&#45;&gt;N1 -->
<g id="edge5" class="edge"><title>N3&#45;&gt;N1</title>
<path fill="none" stroke="black" d="M149.649,-72.055C155.488,-63.7147 162.644,-53.4908 169.112,-44.2517"/>
<polygon fill="black" stroke="black" points="172.168,-45.9885 175.035,-35.789 166.433,-41.9742 172.168,-45.9885"/>
</g>
</g>
</svg>
