<?xml version="1.0" encoding="UTF-8" standalone="no"?>
<!-- Generated by graphviz version 2.38.0 (20140413.2041)
 -->

<!-- Title: flowgraph Pages: 1 -->

<svg
   xmlns:dc="http://purl.org/dc/elements/1.1/"
   xmlns:cc="http://creativecommons.org/ns#"
   xmlns:rdf="http://www.w3.org/1999/02/22-rdf-syntax-ns#"
   xmlns:svg="http://www.w3.org/2000/svg"
   xmlns="http://www.w3.org/2000/svg"
   xmlns:sodipodi="http://sodipodi.sourceforge.net/DTD/sodipodi-0.dtd"
   xmlns:inkscape="http://www.inkscape.org/namespaces/inkscape"
   width="256pt"
   height="558pt"
   viewBox="0 0 256 558"
   id="svg4403"
   version="1.1"
   inkscape:version="0.91 r13725"
   sodipodi:docname="main_mouse_fg.svg">
  <metadata
     id="metadata4611">
    <rdf:RDF>
      <cc:Work
         rdf:about="">
        <dc:format>image/svg+xml</dc:format>
        <dc:type
           rdf:resource="http://purl.org/dc/dcmitype/StillImage" />
        <dc:title />
      </cc:Work>
    </rdf:RDF>
  </metadata>
  <defs
     id="defs4609" />
  <sodipodi:namedview
     pagecolor="#ffffff"
     bordercolor="#666666"
     borderopacity="1"
     objecttolerance="10"
     gridtolerance="10"
     guidetolerance="10"
     inkscape:pageopacity="0"
     inkscape:pageshadow="2"
     inkscape:window-width="2556"
     inkscape:window-height="1436"
     id="namedview4607"
     showgrid="false"
     inkscape:zoom="0.92775372"
     inkscape:cx="-523.11235"
     inkscape:cy="766.36996"
     inkscape:window-x="2560"
     inkscape:window-y="0"
     inkscape:window-maximized="0"
     inkscape:current-layer="graph0" />
  <g
     id="graph0"
     class="graph"
     transform="translate(4,554)">
    <title
       id="title4406">flowgraph</title>
    <!-- N1 -->
    <g
       id="node1"
       class="node"
       transform="translate(38.025964,217.68777)">
      <title
         id="title4411">N1</title>
      <polygon
         points="190,-756 86,-756 86,-720 190,-720 190,-756 "
         id="polygon4413"
         style="fill:none;stroke:#000000" />
      <text
         x="94"
         y="-735.29999"
         font-size="14.00"
         id="text4415"
         style="font-size:14px;font-family:Times, serif;text-anchor:start">test</text>
      <text
         x="117"
         y="-735.29999"
         font-weight="bold"
         font-size="14.00"
         id="text4417"
         style="font-weight:bold;font-size:14px;font-family:Times, serif;text-anchor:start">finished ?</text>
      <text
         x="174"
         y="-735.29999"
         font-size="14.00"
         id="text4419"
         style="font-size:14px;font-family:Times, serif;text-anchor:start"> </text>
    </g>
    <!-- N2 -->
    <g
       id="node2"
       class="node"
       transform="translate(7.8455434,209.06479)">
      <title
         id="title4422">N2</title>
      <polygon
         points="131.5,-684 66.5,-684 66.5,-648 131.5,-648 131.5,-684 "
         id="polygon4424"
         style="fill:none;stroke:#000000" />
      <text
         x="74.5"
         y="-663.29999"
         font-size="14.00"
         id="text4426"
         style="font-size:14px;font-family:Times, serif;text-anchor:start">test</text>
      <text
         x="97.5"
         y="-663.29999"
         font-weight="bold"
         font-size="14.00"
         id="text4428"
         style="font-weight:bold;font-size:14px;font-family:Times, serif;text-anchor:start">6 ?</text>
      <text
         x="115.5"
         y="-663.29999"
         font-size="14.00"
         id="text4430"
         style="font-size:14px;font-family:Times, serif;text-anchor:start"> </text>
    </g>
    <!-- N1&#45;&gt;N2 -->
    <g
       id="edge14"
       class="edge"
       transform="matrix(0.72881033,0,0,0.72955546,55.544424,22.767388)">
      <title
         id="title4433">N1-&gt;N2</title>
      <path
         d="m 128.36,-719.697 c -4.487,8.053 -9.919,17.803 -14.884,26.715"
         id="path4435"
         inkscape:connector-curvature="0"
         style="fill:none;stroke:#000000;stroke-dasharray:5, 2" />
      <polygon
         points="110.339,-694.544 116.454,-691.137 116.454,-691.137 108.53,-684.104 "
         id="polygon4437"
         style="fill:#000000;stroke:#000000" />
    </g>
    <!-- N13 -->
    <g
       id="node13"
       class="node"
       transform="translate(55.271924,201.30411)">
      <title
         id="title4440">N13</title>
      <text
         x="161.5"
         y="-662.29999"
         font-size="14.00"
         id="text4442"
         style="font-size:14px;font-family:Times, serif;text-anchor:start">finish</text>
    </g>
    <!-- N1&#45;&gt;N13 -->
    <g
       id="edge13"
       class="edge"
       transform="matrix(0.78747684,0,0,0.72846426,89.290124,22.002068)">
      <title
         id="title4445">N1-&gt;N13</title>
      <path
         d="m 147.64,-719.697 c 4.487,8.053 9.919,17.803 14.884,26.715"
         id="path4447"
         inkscape:connector-curvature="0"
         style="fill:none;stroke:#000000" />
      <polygon
         points="159.546,-691.137 165.661,-694.544 165.661,-694.544 167.47,-684.104 "
         id="polygon4449"
         style="fill:#000000;stroke:#000000" />
    </g>
    <!-- N3 -->
    <g
       id="node3"
       class="node"
       transform="translate(-18.023396,153.87773)">
      <title
         id="title4452">N3</title>
      <ellipse
         cx="58"
         cy="-522"
         rx="35.194"
         ry="18"
         id="ellipse4454"
         style="fill:none;stroke:#000000" />
      <text
         x="39"
         y="-518.29999"
         font-size="14.00"
         id="text4456"
         style="font-size:14px;font-family:Times, serif;text-anchor:start;fill:#006400">enter 6</text>
    </g>
    <!-- N2&#45;&gt;N3 -->
    <g
       id="edge12"
       class="edge"
       transform="matrix(0.92087529,0,0,0.48835283,-6.7691666,-122.56277)">
      <title
         id="title4459">N2-&gt;N3</title>
      <path
         d="m 94.0544,-647.871 c -7.0184,24.307 -19.9377,69.052 -28.2548,97.858"
         id="path4461"
         inkscape:connector-curvature="0"
         style="fill:none;stroke:#000000;stroke-dasharray:5, 2" />
      <polygon
         points="69.0998,-548.826 69.0998,-548.826 62.9631,-540.189 62.3745,-550.768 "
         id="polygon4463"
         style="fill:#000000;stroke:#000000" />
    </g>
    <!-- N11 -->
    <g
       id="node11"
       class="node"
       transform="translate(31.127584,191.81884)">
      <title
         id="title4466">N11</title>
      <ellipse
         cx="135"
         cy="-594"
         rx="30.5947"
         ry="18"
         id="ellipse4468"
         style="fill:none;stroke:#000000" />
      <text
         x="119.5"
         y="-590.29999"
         font-size="14.00"
         id="text4470"
         style="font-size:14px;font-family:Times, serif;text-anchor:start;fill:#ff0000">exit 4</text>
    </g>
    <!-- N2&#45;&gt;N11 -->
    <g
       id="edge11"
       class="edge"
       transform="matrix(0.75148407,0,0,0.6368898,50.001194,-27.217462)">
      <title
         id="title4473">N2-&gt;N11</title>
      <path
         d="m 107.899,-647.697 c 4.203,8.174 9.305,18.094 13.944,27.113"
         id="path4475"
         inkscape:connector-curvature="0"
         style="fill:none;stroke:#000000" />
      <polygon
         points="124.99,-622.116 124.99,-622.116 126.451,-611.622 118.765,-618.914 "
         id="polygon4477"
         style="fill:#000000;stroke:#000000" />
    </g>
    <!-- N4 -->
    <g
       id="node4"
       class="node"
       transform="translate(0.94716344,136.63177)">
      <title
         id="title4480">N4</title>
      <ellipse
         cx="100"
         cy="-450"
         rx="35.194"
         ry="18"
         id="ellipse4482"
         style="fill:none;stroke:#000000" />
      <text
         x="81"
         y="-446.29999"
         font-size="14.00"
         id="text4484"
         style="font-size:14px;font-family:Times, serif;text-anchor:start;fill:#006400">enter 5</text>
    </g>
    <!-- N3&#45;&gt;N4 -->
    <g
       id="edge8"
       class="edge"
       transform="matrix(0.85872353,0,0,0.66276919,0.47446881,-18.592358)">
      <title
         id="title4487">N3-&gt;N4</title>
      <path
         d="m 67.9534,-504.411 c 5.0737,8.456 11.35,18.917 16.9996,28.333"
         id="path4489"
         inkscape:connector-curvature="0"
         style="fill:none;stroke:#000000" />
      <polygon
         points="90.118,-467.47 81.9718,-474.244 87.9743,-477.846 87.9743,-477.846 "
         id="polygon4491"
         style="fill:#000000;stroke:#000000" />
    </g>
    <!-- N5 -->
    <g
       id="node5"
       class="node"
       transform="translate(-1.6397366,117.78582)">
      <title
         id="title4494">N5</title>
      <ellipse
         cx="100"
         cy="-378"
         rx="35.194"
         ry="18"
         id="ellipse4496"
         style="fill:none;stroke:#000000" />
      <text
         x="81"
         y="-374.29999"
         font-size="14.00"
         id="text4498"
         style="font-size:14px;font-family:Times, serif;text-anchor:start;fill:#006400">enter 3</text>
    </g>
    <!-- N4&#45;&gt;N5 -->
    <g
       id="edge7"
       class="edge"
       transform="matrix(0.64672817,0,0,0.43491232,34.854068,-107.35426)">
      <title
         id="title4501">N4-&gt;N5</title>
      <path
         d="m 100,-431.697 c 0,7.714 0,16.985 0,25.585"
         id="path4503"
         inkscape:connector-curvature="0"
         style="fill:none;stroke:#000000" />
      <polygon
         points="100,-396.104 96.5001,-406.104 103.5,-406.104 103.5,-406.104 "
         id="polygon4505"
         style="fill:#000000;stroke:#000000" />
    </g>
    <!-- N6 -->
    <g
       id="node6"
       class="node"
       transform="translate(10.432433,102.13986)">
      <title
         id="title4508">N6</title>
      <polygon
         points="200,-324 0,-324 0,-288 200,-288 200,-324 "
         id="polygon4510"
         style="fill:none;stroke:#000000" />
      <text
         x="8"
         y="-303.29999"
         font-size="14.00"
         id="text4512"
         style="font-size:14px;font-family:Times, serif;text-anchor:start">test</text>
      <text
         x="31"
         y="-303.29999"
         font-weight="bold"
         font-size="14.00"
         id="text4514"
         style="font-weight:bold;font-size:14px;font-family:Times, serif;text-anchor:start">window##onmousemove ?</text>
      <text
         x="184"
         y="-303.29999"
         font-size="14.00"
         id="text4516"
         style="font-size:14px;font-family:Times, serif;text-anchor:start"> </text>
    </g>
    <!-- N5&#45;&gt;N6 -->
    <g
       id="edge6"
       class="edge"
       transform="matrix(0.71903246,0,0,0.54213344,26.569244,-47.248775)">
      <title
         id="title4519">N5-&gt;N6</title>
      <path
         d="m 100,-359.697 c 0,7.714 0,16.985 0,25.585"
         id="path4521"
         inkscape:connector-curvature="0"
         style="fill:none;stroke:#000000" />
      <polygon
         points="103.5,-334.104 100,-324.104 96.5001,-334.104 103.5,-334.104 "
         id="polygon4523"
         style="fill:#000000;stroke:#000000" />
    </g>
    <!-- N7 -->
    <g
       id="node7"
       class="node"
       transform="translate(-0.77743657,46.952798)">
      <title
         id="title4526">N7</title>
      <ellipse
         cx="100"
         cy="-162"
         rx="30.5947"
         ry="18"
         id="ellipse4528"
         style="fill:none;stroke:#000000" />
      <text
         x="84.5"
         y="-158.3"
         font-size="14.00"
         id="text4530"
         style="font-size:14px;font-family:Times, serif;text-anchor:start;fill:#ff0000">exit 3</text>
    </g>
    <!-- N6&#45;&gt;N7 -->
    <g
       id="edge5"
       class="edge"
       transform="matrix(0.83269945,0,0,0.52021858,-0.60530953,-36.334962)">
      <title
         id="title4533">N6-&gt;N7</title>
      <path
         d="m 96.3462,-287.908 c -2.022,10.339 -4.327,23.818 -5.3462,35.908 -1.3441,15.943 -1.3441,20.057 0,36 0.7166,8.501 2.0689,17.688 3.5116,25.988"
         id="path4535"
         inkscape:connector-curvature="0"
         style="fill:none;stroke:#000000;stroke-dasharray:5, 2" />
      <polygon
         points="91.0858,-189.289 97.9691,-190.562 97.9691,-190.562 96.3462,-180.092 "
         id="polygon4537"
         style="fill:#000000;stroke:#000000" />
    </g>
    <!-- N10 -->
    <g
       id="node10"
       class="node"
       transform="translate(31.989884,81.444708)">
      <title
         id="title4540">N10</title>
      <ellipse
         cx="129"
         cy="-234"
         rx="28.695299"
         ry="18"
         id="ellipse4542"
         style="fill:none;stroke:#000000" />
      <text
         x="115"
         y="-230.3"
         font-size="14.00"
         id="text4544"
         style="font-size:14px;font-family:Times, serif;text-anchor:start">atom</text>
    </g>
    <!-- N6&#45;&gt;N10 -->
    <g
       id="edge4"
       class="edge"
       transform="matrix(0.65365766,-0.14196217,0.13469161,0.58789587,93.992625,-1.0196209)">
      <title
         id="title4547">N6-&gt;N10</title>
      <path
         d="m 107.169,-287.697 c 3.35,8.088 7.409,17.885 11.114,26.828"
         id="path4549"
         inkscape:connector-curvature="0"
         style="fill:none;stroke:#000000" />
      <polygon
         points="121.52,-262.2 122.114,-251.622 115.053,-259.521 121.52,-262.2 "
         id="polygon4551"
         style="fill:#000000;stroke:#000000" />
    </g>
    <!-- N8 -->
    <g
       id="node8"
       class="node"
       transform="translate(-0.77743657,27.982248)">
      <title
         id="title4554">N8</title>
      <ellipse
         cx="100"
         cy="-90"
         rx="35.194"
         ry="18"
         id="ellipse4556"
         style="fill:none;stroke:#000000" />
      <text
         x="81"
         y="-86.300003"
         font-size="14.00"
         id="text4558"
         style="font-size:14px;font-family:Times, serif;text-anchor:start;fill:#006400">enter 4</text>
    </g>
    <!-- N7&#45;&gt;N8 -->
    <!-- N9 -->
    <g
       id="node9"
       class="node"
       transform="translate(-0.77743657,-4.7850721)">
      <title
         id="title4568">N9</title>
      <text
         x="84.5"
         y="-14.3"
         font-size="14.00"
         id="text4570"
         style="font-size:14px;font-family:Times, serif;text-anchor:start">pause</text>
    </g>
    <!-- N8&#45;&gt;N9 -->
    <g
       id="edge1"
       class="edge"
       transform="matrix(0.81146328,0,0,0.4394976,18.291314,-65.602602)">
      <title
         id="title4573">N8-&gt;N9</title>
      <path
         d="m 100,-71.6966 c 0,7.7139 0,16.9841 0,25.5842"
         id="path4575"
         inkscape:connector-curvature="0"
         style="fill:none;stroke:#000000" />
      <polygon
         points="96.5001,-46.1044 103.5,-46.1043 103.5,-46.1043 100,-36.1043 "
         id="polygon4577"
         style="fill:#000000;stroke:#000000" />
    </g>
    <!-- N10&#45;&gt;N7 -->
    <g
       id="edge3"
       class="edge"
       transform="matrix(0.55094196,0.15939076,-0.15523753,0.47480821,36.477309,-59.182139)">
      <title
         id="title4580">N10-&gt;N7</title>
      <path
         d="m 122.127,-216.411 c -3.345,8.076 -7.448,17.98 -11.209,27.056"
         id="path4582"
         inkscape:connector-curvature="0"
         style="fill:none;stroke:#000000" />
      <polygon
         points="107.025,-179.956 107.619,-190.534 114.086,-187.855 114.086,-187.855 "
         id="polygon4584"
         style="fill:#000000;stroke:#000000" />
    </g>
    <!-- N12 -->
    <g
       id="node12"
       class="node"
       transform="translate(31.127584,171.98599)">
      <title
         id="title4587">N12</title>
      <ellipse
         cx="142"
         cy="-522"
         rx="30.5947"
         ry="18"
         id="ellipse4589"
         style="fill:none;stroke:#000000" />
      <text
         x="126.5"
         y="-518.29999"
         font-size="14.00"
         id="text4591"
         style="font-size:14px;font-family:Times, serif;text-anchor:start;fill:#ff0000">exit 5</text>
    </g>
    <!-- N11&#45;&gt;N12 -->
    <g
       id="edge10"
       class="edge"
       transform="matrix(0.66425468,0,0,0.42495607,76.161664,-139.21969)">
      <title
         id="title4594">N11-&gt;N12</title>
      <path
         d="m 136.73,-575.697 c 0.772,7.714 1.699,16.985 2.559,25.585"
         id="path4596"
         inkscape:connector-curvature="0"
         style="fill:none;stroke:#000000" />
      <polygon
         points="140.29,-540.104 135.812,-549.706 142.777,-550.403 142.777,-550.403 "
         id="polygon4598"
         style="fill:#000000;stroke:#000000" />
    </g>
    <!-- N12&#45;&gt;N4 -->
    <g
       id="edge9"
       class="edge"
       transform="matrix(0.52136347,0.105167,-0.11539357,0.50647483,20.650653,-98.190982)">
      <title
         id="title4601">N12-&gt;N4</title>
      <path
         d="m 132.259,-504.765 c -5.069,8.448 -11.379,18.966 -17.072,28.453"
         id="path4603"
         inkscape:connector-curvature="0"
         style="fill:none;stroke:#000000" />
      <polygon
         points="109.98,-467.633 112.124,-478.009 118.126,-474.408 118.126,-474.408 "
         id="polygon4605"
         style="fill:#000000;stroke:#000000" />
    </g>
    <g
       id="edge1-2"
       class="edge"
       transform="matrix(0.81146328,0,0,0.4394976,18.127264,-11.905602)">
      <title
         id="title4573-0">N8-&gt;N9</title>
      <path
         d="m 100,-71.6966 c 0,7.7139 0,16.9841 0,25.5842"
         id="path4575-1"
         inkscape:connector-curvature="0"
         style="fill:none;stroke:#000000" />
      <polygon
         points="103.5,-46.1043 103.5,-46.1043 100,-36.1043 96.5001,-46.1044 "
         id="polygon4577-7"
         style="fill:#000000;stroke:#000000" />
    </g>
  </g>
</svg>
